# xmcd
#
# Track frame offsets:
#	150
#	14664
#	31926
#	46294
#	61440
#	74389
#	88060
#	103529
#	117757
#	133970
#	147717
#	163133
#	176146
#	194372
#	209380
#	225041
#	239815
#	255565
#
# Disc length: 3585 seconds
#
# Revision: 0
# Processed by: cddbd v1.5.2PL0 Copyright (c) Steve Scherf et al.
# Submitted via: audiograbber 1.83.01
#
DISCID=0e0dff12
DTITLE=Reino Korpela - Elaman Virrassa
DYEAR=2008
DGENRE=Easy Listening
TTITLE0=Harmaja tolli
TTITLE1=Wanha kulkuri kertoo
TTITLE2=Mina katselen virtaa
TTITLE3=Surusilmat
TTITLE4=Laatokan morsian
TTITLE5=Merien mies
TTITLE6=Mies tuo poydassansa
TTITLE7=Kulkijan kaipaus
TTITLE8=Silmien lumo
TTITLE9=Yon yli vanhat ja nuoret
TTITLE10=Saimaan savelet
TTITLE11=Elaman mittainen haavalssi
TTITLE12=Iltasadun aikaan
TTITLE13=Eron kyyneleet
TTITLE14=Ilta Salojarvella
TTITLE15=Kulkurin tie
TTITLE16=Koti-Karjalan maa
TTITLE17=Iltasatu
EXTD=
EXTT0=
EXTT1=
EXTT2=
EXTT3=
EXTT4=
EXTT5=
EXTT6=
EXTT7=
EXTT8=
EXTT9=
EXTT10=
EXTT11=
EXTT12=
EXTT13=
EXTT14=
EXTT15=
EXTT16=
EXTT17=
PLAYORDER=
